<svg width="407" height="127" viewBox="0 0 407 127" fill="none" xmlns="http://www.w3.org/2000/svg">
<path d="M185.416 107.639C186.584 106.378 187.168 104.346 187.168 101.539V45.862L206.947 26.0835V104.34C206.947 111.167 205.17 116.515 201.617 120.398C198.064 124.28 192.92 126.218 186.187 126.218H168.508V109.527H180.018C182.447 109.527 184.249 108.893 185.416 107.632V107.639Z" fill="black"/>
<path d="M288.558 98.172H271.028V87.0591C264.618 96.1221 257.915 99.5821 248.026 99.5821C227.067 99.5821 219.414 84.9595 219.414 65.2058V26.0775H239.193V62.8205C239.193 69.3678 240.336 74.3 242.628 77.6171C244.92 80.9342 248.448 82.5928 253.219 82.5928C257.99 82.5928 262.009 80.7479 264.717 77.0518C267.432 73.362 268.786 68.1937 268.786 61.5533V26.0713H288.558V98.1596V98.172Z" fill="black"/>
<path d="M322.071 0H302.293V98.1718H322.071V0Z" fill="black"/>
<path d="M368.013 77.8343L385.127 26.0835H406.303L374.324 108.409C372.641 112.801 371.051 116.242 369.554 118.714C368.056 121.193 366.162 123.063 363.87 124.324C361.578 125.585 358.608 126.218 354.962 126.218H335.749V109.527H346.688C349.21 109.527 351.036 109.105 352.154 108.266C353.278 107.427 354.353 105.788 355.378 103.359L357.204 98.588L329.438 26.0835H350.477L368.007 77.8343H368.013Z" fill="black"/>
<path d="M206.946 6.31104H187.168V26.0895H206.946V6.31104Z" fill="black"/>
<path d="M86.9781 126.224C64.1683 126.224 42.6505 120.249 26.3755 109.403C9.36745 98.0598 0 82.7415 0 66.2677C0 49.7939 9.36745 34.4693 26.3755 23.1327C42.6505 12.2868 64.1683 6.31104 86.9781 6.31104C90.2393 6.31104 92.8856 8.95728 92.8856 12.2185C92.8856 15.4797 90.2393 18.1259 86.9781 18.1259C66.4791 18.1259 47.2845 23.3936 32.9352 32.966C19.3188 42.0415 11.8211 53.8688 11.8211 66.2615C11.8211 78.6541 19.3188 90.4814 32.9352 99.5569C33.1836 99.7246 33.4321 99.8861 33.6868 100.054C31.5251 95.7925 30.4007 91.2393 30.4007 86.5307C30.4007 75.4674 36.6063 65.2365 47.8746 57.7264C58.4037 50.707 72.2933 46.8433 86.9781 46.8433C101.663 46.8433 115.553 50.707 126.082 57.7264C137.35 65.2365 143.556 75.4674 143.556 86.5307C143.556 97.594 137.35 107.825 126.082 115.335C115.553 122.354 101.663 126.224 86.9781 126.224ZM86.9595 114.403C86.9595 114.403 86.9843 114.403 86.9968 114.403C100.035 114.397 111.465 107.688 111.465 100.048C111.465 92.4071 100.023 85.6921 86.9719 85.6921C73.9208 85.6921 62.4786 92.4009 62.4786 100.048C62.4786 107.694 73.9146 114.397 86.9471 114.403H86.9595ZM86.9781 58.6644C62.7147 58.6644 42.2218 71.4235 42.2218 86.5307C42.2218 92.5251 45.4458 98.1468 50.8501 102.75C50.7258 101.861 50.6637 100.955 50.6637 100.041C50.6637 85.3629 66.6157 73.8647 86.9719 73.8647C107.328 73.8647 123.28 85.3629 123.28 100.041C123.28 100.955 123.218 101.861 123.094 102.75C128.498 98.1468 131.722 92.5251 131.722 86.5307C131.722 71.4235 111.223 58.6644 86.9657 58.6644H86.9781Z" fill="#7E3EFF"/>
</svg>
